<svg viewBox="0 0 21 21" fill="none" xmlns="http://www.w3.org/2000/svg">
  <path d="M19.6871 10.5824C19.6558 10.6527 18.8672 12.4017 17.087 14.0024C16.9685 14.1013 16.8196 14.1565 16.6653 14.1585C16.5787 14.1585 16.4929 14.1404 16.4136 14.1055C16.3343 14.0705 16.2631 14.0195 16.2046 13.9555L8.29499 5.25723C8.22143 5.1733 8.1714 5.0714 8.14996 4.96188C8.12852 4.85236 8.13644 4.73912 8.17292 4.63365C8.2094 4.52819 8.27313 4.43425 8.35765 4.36138C8.44218 4.2885 8.54447 4.23929 8.65416 4.21874C9.22185 4.12416 9.79644 4.07715 10.372 4.0782C13.097 4.0782 15.5722 5.11668 17.532 7.06872C19 8.54446 19.6637 10.0124 19.6871 10.0749C19.7217 10.155 19.7395 10.2413 19.7395 10.3286C19.7395 10.4159 19.7217 10.5023 19.6871 10.5824ZM17.0792 16.7742C17.1355 16.8343 17.1792 16.9049 17.2078 16.9821C17.2364 17.0593 17.2492 17.1414 17.2456 17.2236C17.242 17.3059 17.2219 17.3865 17.1866 17.4609C17.1513 17.5352 17.1015 17.6018 17.0401 17.6566C16.9242 17.7607 16.7743 17.819 16.6185 17.8205C16.5318 17.8205 16.4461 17.8024 16.3668 17.7675C16.2875 17.7325 16.2163 17.6815 16.1578 17.6175L14.44 15.728C13.1576 16.2896 11.7719 16.5768 10.372 16.5712C7.64691 16.5712 5.17173 15.5328 3.21188 13.5807C1.74395 12.105 1.08025 10.637 1.05683 10.5824C1.02224 10.5023 1.00439 10.4159 1.00439 10.3286C1.00439 10.2413 1.02224 10.155 1.05683 10.0749C1.11149 9.94992 2.32956 7.26392 5.16392 5.5227L3.66475 3.87518C3.55712 3.75234 3.50187 3.59223 3.51086 3.42915C3.51984 3.26607 3.59234 3.113 3.71283 3.00273C3.83331 2.89246 3.99218 2.83376 4.15542 2.83922C4.31865 2.84467 4.47326 2.91384 4.58611 3.0319L17.0792 16.7742ZM11.754 12.7687L8.06855 8.71624C7.70666 9.23869 7.5325 9.86835 7.57448 10.5025C7.61646 11.1367 7.87211 11.7379 8.29971 12.2081C8.72732 12.6783 9.30164 12.9897 9.92898 13.0915C10.5563 13.1933 11.1996 13.0795 11.754 12.7687Z" fill="#4C4C4C"></path>
  </svg>