<svg viewBox="0 0 21 21" fill="none" xmlns="http://www.w3.org/2000/svg">
  <path opacity="0.5" d="M8.04513 6.2371C8.04513 4.82122 9.12786 3.73849 10.5437 3.73849C11.9596 3.73849 13.0423 4.82122 13.0423 6.2371V7.90284H14.7081V6.2371C14.7081 3.90507 12.8758 2.07275 10.5437 2.07275C8.21171 2.07275 6.37939 3.90507 6.37939 6.2371V7.90284H8.04513V6.2371ZM11.793 12.4836C11.793 11.8173 11.21 11.2343 10.5437 11.2343C9.87745 11.2343 9.29444 11.8173 9.29444 12.4836C9.29444 12.8168 9.46101 13.1499 9.71087 13.3998V14.5658C9.71087 15.0655 10.044 15.3987 10.5437 15.3987C11.0435 15.3987 11.3766 15.0655 11.3766 14.5658V13.3998C11.6265 13.1499 11.793 12.8168 11.793 12.4836Z" fill="currentColor"></path>
  <path d="M14.7082 7.90283H6.37947C4.96359 7.90283 3.88086 8.98556 3.88086 10.4014V16.2315C3.88086 17.6474 4.96359 18.7301 6.37947 18.7301H14.7082C16.124 18.7301 17.2068 17.6474 17.2068 16.2315V10.4014C17.2068 8.98556 16.124 7.90283 14.7082 7.90283ZM11.3767 13.3998V14.5658C11.3767 15.0655 11.0435 15.3987 10.5438 15.3987C10.0441 15.3987 9.71094 15.0655 9.71094 14.5658V13.3998C9.46108 13.1499 9.29451 12.8168 9.29451 12.4836C9.29451 11.8173 9.87752 11.2343 10.5438 11.2343C11.2101 11.2343 11.7931 11.8173 11.7931 12.4836C11.7931 12.8168 11.6265 13.1499 11.3767 13.3998Z" fill="#4C4C4C"></path>
  </svg>