<svg viewBox="0 0 21 21" fill="none" xmlns="http://www.w3.org/2000/svg">
  <path d="M10.5438 4.02075C11.4274 4.02075 12.2748 4.37175 12.8995 4.99652C13.5243 5.62129 13.8753 6.46867 13.8753 7.35223C13.8753 8.23579 13.5243 9.08317 12.8995 9.70794C12.2748 10.3327 11.4274 10.6837 10.5438 10.6837C9.66025 10.6837 8.81288 10.3327 8.1881 9.70794C7.56333 9.08317 7.21234 8.23579 7.21234 7.35223C7.21234 6.46867 7.56333 5.62129 8.1881 4.99652C8.81288 4.37175 9.66025 4.02075 10.5438 4.02075ZM10.5438 12.3494C14.2251 12.3494 17.2068 13.8403 17.2068 15.6809V17.3467H3.88086V15.6809C3.88086 13.8403 6.86253 12.3494 10.5438 12.3494Z" fill="#4C4C4C"></path>
  </svg>